<svg width="29" height="29" viewBox="0 0 29 29" fill="none" xmlns="http://www.w3.org/2000/svg">
<path d="M8.17247 10.5322C8.17247 11.129 8.21115 11.6129 8.27862 11.9678C8.36429 12.367 8.46742 12.7551 8.5872 13.129C8.63545 13.258 8.65467 13.387 8.65467 13.5C8.65467 13.6612 8.59687 13.8225 8.47149 13.9839L7.86389 14.6613C7.77707 14.7581 7.69026 14.8064 7.613 14.8064C7.51663 14.8064 7.42014 14.7258 7.32365 14.5806C7.19371 14.347 7.07746 14.0932 6.9765 13.8225C6.88001 13.5485 6.78353 13.2418 6.67748 12.871C5.92515 14.3547 4.97985 15.0968 3.8418 15.0968C3.03167 15.0968 2.38539 14.7096 1.91274 13.9356C1.4402 13.1611 1.1991 12.1289 1.1991 10.8387C1.1991 9.46777 1.48844 8.35487 2.07681 7.51614C2.66507 6.67742 3.44641 6.25806 4.43984 6.25806C4.76776 6.25806 5.10535 6.30639 5.46217 6.38707C5.81911 6.46774 6.1856 6.59675 6.57144 6.74193V5.56452C6.57144 4.33859 6.41703 3.48389 6.11801 2.98385C5.80944 2.48382 5.28854 2.24179 4.54589 2.24179C4.20829 2.24179 3.86114 2.30648 3.50421 2.45166C3.14739 2.59665 2.80013 2.77417 2.46253 3.00003C2.30825 3.11286 2.19253 3.17736 2.12494 3.20971C2.05747 3.24205 2.00923 3.25804 1.97065 3.25804C1.83559 3.25804 1.76812 3.09668 1.76812 2.758V1.96761C1.76812 1.7096 1.78746 1.51609 1.83559 1.40326C1.88384 1.29024 1.97065 1.17741 2.10571 1.06457C2.4433 0.774219 2.84837 0.532192 3.32091 0.338685C3.79367 0.129005 4.29522 0.0323463 4.82568 0.0323463C5.97351 0.0323463 6.81266 0.46769 7.35278 1.33876C7.88323 2.20963 8.15335 3.53222 8.15335 5.30651V10.5322H8.17269H8.17247ZM4.25654 12.9838C4.5749 12.9838 4.90282 12.8872 5.24997 12.6935C5.59723 12.5 5.90592 12.1451 6.16626 11.6612C6.32066 11.3549 6.43638 11.0162 6.49418 10.629C6.55209 10.242 6.59067 9.77411 6.59067 9.22574V8.54837C6.29817 8.42932 6.00191 8.33778 5.70328 8.27419C5.40258 8.21032 5.09978 8.17798 4.79666 8.17734C4.15038 8.17734 3.67784 8.38702 3.35959 8.82255C3.04123 9.25809 2.88694 9.87096 2.88694 10.6773C2.88694 11.4354 3.00266 11.9999 3.24376 12.3871C3.47531 12.7903 3.8129 12.9838 4.25654 12.9838ZM12.0016 14.7258C11.8279 14.7258 11.7122 14.6774 11.6351 14.5644C11.5579 14.4677 11.4904 14.2419 11.4326 13.9356L9.16601 1.46776C9.10798 1.14506 9.07908 0.93538 9.07908 0.822548C9.07908 0.564538 9.15623 0.41917 9.31063 0.41917H10.2558C10.439 0.41917 10.5645 0.46769 10.632 0.580521C10.7091 0.67737 10.767 0.903223 10.8248 1.20956L12.4452 11.8871L13.9499 1.20956C13.9981 0.88705 14.056 0.67737 14.1331 0.580521C14.2103 0.483863 14.3454 0.419361 14.519 0.419361H15.2906C15.4738 0.419361 15.5993 0.46769 15.6763 0.580521C15.7535 0.67737 15.821 0.903223 15.8596 1.20956L17.3836 12.0161L19.0521 1.20956C19.1099 0.88705 19.1775 0.67737 19.245 0.580521C19.3221 0.483863 19.4475 0.419361 19.6211 0.419361H20.5181C20.6725 0.419361 20.7593 0.548365 20.7593 0.822548C20.7593 0.903223 20.7496 0.983899 20.7399 1.08056C20.7303 1.17741 20.711 1.30641 20.6725 1.48394L18.3479 13.9515C18.2901 14.2742 18.2226 14.4839 18.1454 14.5806C18.0682 14.6774 17.9428 14.7419 17.779 14.7419H16.9495C16.7662 14.7419 16.6408 14.6936 16.5636 14.5806C16.4864 14.4677 16.4189 14.2581 16.3804 13.9356L14.8853 3.53222L13.4 13.9192C13.3518 14.2419 13.2939 14.4516 13.2168 14.5644C13.1396 14.6774 13.0046 14.7258 12.831 14.7258H12.0015H12.0016ZM24.3955 15.1613C23.894 15.1613 23.3924 15.0644 22.9102 14.8709C22.4279 14.6774 22.0518 14.4676 21.8011 14.2259C21.6467 14.0805 21.5405 13.9194 21.5021 13.7742C21.4645 13.6318 21.4448 13.4781 21.4441 13.3225V12.5C21.4441 12.1613 21.5213 11.9999 21.666 11.9999C21.7251 12.0003 21.7837 12.0167 21.8396 12.0484C21.8974 12.0808 21.9843 12.1451 22.0807 12.2096C22.4214 12.4602 22.777 12.6494 23.1417 12.7741C23.5195 12.9024 23.904 12.9672 24.2895 12.9676C24.8971 12.9676 25.3697 12.7903 25.6977 12.4354C26.0256 12.0806 26.1992 11.5646 26.1992 10.9032C26.1992 10.4517 26.1124 10.0806 25.9388 9.77411C25.7651 9.46777 25.4372 9.19359 24.9647 8.93539L23.5661 8.20969C22.862 7.83866 22.3412 7.29029 22.0228 6.5644C21.7046 5.85468 21.5406 5.06448 21.5406 4.22576C21.5406 3.54839 21.6274 2.95151 21.8011 2.4353C21.9746 1.91928 22.2061 1.46776 22.4955 1.1129C22.7848 0.741872 23.1128 0.46769 23.4986 0.274183C23.8843 0.0806755 24.2894 0 24.7138 0C24.926 0 25.1479 0.0161732 25.3601 0.0645024C25.5819 0.112832 25.7845 0.177334 25.987 0.241836C26.1799 0.322512 26.3632 0.403187 26.5368 0.500036C26.7104 0.596695 26.8454 0.693543 26.9419 0.790202C27.0769 0.919397 27.1733 1.0484 27.2312 1.19358C27.2891 1.32258 27.318 1.49992 27.318 1.72577V2.48382C27.318 2.8225 27.2409 3.00003 27.0962 3.00003C27.019 3.00003 26.8936 2.93533 26.7298 2.80633C26.1799 2.38697 25.5626 2.17729 24.8779 2.17729C24.3281 2.17729 23.894 2.32247 23.595 2.62899C23.2961 2.93533 23.1417 3.40321 23.1417 4.06441C23.1417 4.51612 23.2381 4.90313 23.431 5.20966C23.624 5.516 23.9808 5.82253 24.492 6.09671L25.8616 6.8226C26.556 7.19363 27.0576 7.70965 27.3566 8.37085C27.6556 9.03223 27.8003 9.79028 27.8003 10.629C27.8003 11.3225 27.7134 11.9516 27.5495 12.5C27.3759 13.0483 27.1444 13.5322 26.8454 13.9194C26.5464 14.3226 26.1895 14.6129 25.7748 14.8226C25.3407 15.0485 24.8874 15.1613 24.3955 15.1613V15.1613Z" fill="#252F3E"/>
<path d="M26.2184 22.9999C23.0453 26.9193 18.4348 29 14.4707 29C8.9151 29 3.90937 25.5644 0.128502 19.8547C-0.170517 19.4032 0.0994879 18.7903 0.456309 19.145C4.54587 23.1129 9.59029 25.5161 14.8083 25.5161C18.3288 25.5161 22.1964 24.2904 25.7556 21.7742C26.286 21.3708 26.7393 22.3549 26.2184 22.9999V22.9999ZM27.5399 20.4838C27.1348 19.6129 24.8585 20.0644 23.8265 20.2741C23.5178 20.3388 23.4696 19.8871 23.7493 19.5484C25.5626 17.4192 28.543 18.0323 28.8901 18.7418C29.2374 19.4677 28.7936 24.4515 27.0961 26.8387C26.8358 27.2097 26.585 27.0162 26.7007 26.5323C27.0865 24.9354 27.9449 21.3387 27.5399 20.4838V20.4838Z" fill="#FF9900"/>
</svg>
