<svg width="60" height="50" viewBox="0 0 60 50" fill="none" xmlns="http://www.w3.org/2000/svg">
<path d="M9.47368 0H50.5263C53.0389 0 55.4486 1.05357 57.2252 2.92893C59.0019 4.8043 60 7.34784 60 10V40C60 42.6522 59.0019 45.1957 57.2252 47.0711C55.4486 48.9464 53.0389 50 50.5263 50H9.47368C6.96111 50 4.55144 48.9464 2.77478 47.0711C0.998118 45.1957 0 42.6522 0 40V10C0 7.34784 0.998118 4.8043 2.77478 2.92893C4.55144 1.05357 6.96111 0 9.47368 0ZM9.47368 3.33333C7.93263 3.33333 6.5179 3.91667 5.42211 4.88667L30 21.7333L54.5779 4.88667C53.4428 3.88138 52.008 3.33128 50.5263 3.33333H9.47368ZM30 25.7067L3.58105 7.6C3.30091 8.36558 3.15744 9.17929 3.15789 10V40C3.15789 41.7681 3.82331 43.4638 5.00775 44.714C6.19219 45.9643 7.79863 46.6667 9.47368 46.6667H50.5263C52.2014 46.6667 53.8078 45.9643 54.9923 44.714C56.1767 43.4638 56.8421 41.7681 56.8421 40V10C56.8421 9.15333 56.6937 8.34333 56.4189 7.6L30 25.7033V25.7067Z" fill="#AF48FF"/>
</svg>
