<svg width="29" height="29" viewBox="0 0 29 29" fill="none" xmlns="http://www.w3.org/2000/svg">
<path d="M14.5 29L19.8398 11.1597H9.16016L14.4999 29H14.5Z" fill="#E24329"/>
<path d="M14.5 28.9999L9.16015 11.1597H1.67676L14.5 28.9999Z" fill="#FC6D26"/>
<path d="M1.67676 11.1597L0.0541181 16.5813C-0.0180297 16.8223 -0.0180396 17.0819 0.0540897 17.323C0.126219 17.564 0.266785 17.774 0.455642 17.923L14.5 29L1.67665 11.1598L1.67676 11.1597Z" fill="#FCA326"/>
<path d="M1.67676 11.1598H9.16015L5.94422 0.414641C5.77871 -0.138275 5.05819 -0.138152 4.8928 0.414641L1.67676 11.1598Z" fill="#E24329"/>
<path d="M14.5 28.9999L19.8397 11.1597H27.3232L14.4999 28.9999H14.5Z" fill="#FC6D26"/>
<path d="M27.3232 11.1597L28.9459 16.5813C29.018 16.8223 29.018 17.0819 28.9459 17.323C28.8737 17.564 28.7331 17.7741 28.5443 17.923L14.5 29L27.3232 11.1598V11.1597Z" fill="#FCA326"/>
<path d="M27.3232 11.1598H19.8397L23.0558 0.414641C23.2213 -0.138275 23.9418 -0.138152 24.1072 0.414641L27.3232 11.1598Z" fill="#E24329"/>
</svg>
