<svg width="29" height="29" viewBox="0 0 29 29" fill="none" xmlns="http://www.w3.org/2000/svg">
<path d="M14.5172 0.000133466C16.8709 0.000133466 19.087 0.550648 21.1659 1.61708L21.4407 1.75477L21.2002 1.94394C20.6162 2.40838 20.1523 3.01038 19.8601 3.69835L19.7743 3.88753L19.6025 3.80156C18.0047 3.04475 16.3039 2.64916 14.5343 2.64916C7.98871 2.64916 2.68012 7.98123 2.68012 14.5173C2.68012 21.0534 7.97149 26.3856 14.5172 26.3856C21.0628 26.3856 26.3714 21.0535 26.3714 14.5173C26.3714 12.9522 26.0794 11.4213 25.4609 9.97641L25.375 9.78724L25.564 9.70127C26.2683 9.44325 26.8869 9.0133 27.3851 8.46278L27.574 8.22201L27.6943 8.49726C28.5706 10.4065 29 12.4361 29 14.4829C29 22.481 22.4887 29 14.5 29C6.51129 29 0 22.481 0 14.4831C0 6.48506 6.51129 -0.0340043 14.5172 0.000133466ZM14.5172 7.91238C18.1422 7.91238 21.1144 10.8709 21.1315 14.5345C21.1315 18.1982 18.1765 21.1567 14.5172 21.1567C10.8578 21.1567 7.90284 18.1982 7.90284 14.5345C7.90284 10.8709 10.875 7.91238 14.5172 7.91238V7.91238ZM23.9835 2.44274C25.6533 2.44274 27.0072 3.79805 27.0072 5.47C27.0072 7.14185 25.6534 8.49726 23.9835 8.49726C22.3135 8.49726 20.9598 7.14196 20.9598 5.47C20.9598 3.79805 22.3135 2.44274 23.9835 2.44274V2.44274Z" fill="#3880FF"/>
</svg>
