<svg width="29" height="29" viewBox="0 0 29 29" fill="none" xmlns="http://www.w3.org/2000/svg">
<path d="M28.9837 6.56059C28.9944 6.59921 29 6.63904 29 6.6791V12.9038C29 13.0665 28.9105 13.2167 28.7652 13.2976L23.3869 16.3057V22.2677C23.3869 22.3474 23.3654 22.4258 23.3244 22.4949C23.2834 22.5641 23.2244 22.6215 23.1533 22.6615L11.9262 28.9396C11.9005 28.9537 11.8726 28.9627 11.8445 28.9725C11.8339 28.9758 11.8241 28.9821 11.813 28.9849C11.7345 29.005 11.652 29.005 11.5735 28.9849C11.5606 28.9816 11.5489 28.9747 11.5367 28.9702C11.511 28.9611 11.4841 28.9531 11.4596 28.9396L0.234832 22.6614C0.163504 22.6216 0.104235 22.5643 0.0630048 22.4952C0.021775 22.426 4.25216e-05 22.3476 0 22.2677L0 3.59347C0 3.55254 0.00589062 3.51281 0.0163125 3.4743C0.0198242 3.4612 0.0279805 3.44932 0.0327383 3.43622C0.0414609 3.41246 0.0497305 3.38803 0.0625312 3.36591C0.0712539 3.35116 0.0840547 3.33928 0.0945898 3.32563C0.10807 3.30748 0.120305 3.28877 0.136051 3.27282C0.149531 3.25983 0.16709 3.25015 0.18227 3.23881C0.199262 3.22517 0.214328 3.21042 0.233586 3.19964L5.84679 0.0606433C5.91786 0.0209114 5.99843 0 6.08043 0C6.16243 0 6.243 0.0209114 6.31407 0.0606433L11.9267 3.19964H11.9278C11.9465 3.21108 11.9624 3.22517 11.9793 3.23826C11.9944 3.2496 12.0114 3.25983 12.0248 3.27238C12.0412 3.28877 12.0529 3.30759 12.0668 3.32563C12.0768 3.33928 12.0903 3.35116 12.0984 3.36591C12.1118 3.38858 12.1194 3.41246 12.1288 3.43634C12.1334 3.44932 12.1416 3.4612 12.1451 3.47485C12.1559 3.51347 12.1614 3.55342 12.1615 3.59347V15.257L16.8385 12.6411V6.67855C16.8385 6.63893 16.8444 6.59855 16.8549 6.56059C16.859 6.54694 16.8666 6.53506 16.8712 6.52207C16.8806 6.49819 16.8888 6.47365 16.9016 6.45165C16.9103 6.4369 16.9231 6.42502 16.9332 6.41137C16.9471 6.39322 16.9588 6.37451 16.9751 6.35855C16.9887 6.34557 17.0056 6.33588 17.0207 6.32455C17.0383 6.3109 17.0535 6.29616 17.0722 6.28538L22.6859 3.14638C22.757 3.10659 22.8376 3.08565 22.9196 3.08565C23.0016 3.08565 23.0822 3.10659 23.1532 3.14638L28.7658 6.28538C28.7857 6.29671 28.8009 6.31091 28.8184 6.32389C28.8329 6.33533 28.8499 6.34557 28.8634 6.358C28.8797 6.37451 28.8914 6.39322 28.9053 6.41137C28.9159 6.42502 28.9287 6.4369 28.937 6.45165C28.9504 6.47365 28.958 6.49819 28.9673 6.52207C28.9726 6.53506 28.9802 6.54694 28.9837 6.56059ZM28.0644 12.6412V7.46489L26.1002 8.5632L23.3868 10.0809V15.2571L28.0644 12.6412ZM22.4518 22.005V16.8251L19.7826 18.3059L12.161 22.5314V27.7599L22.4518 22.005ZM0.93559 4.37916V22.005L11.2253 27.7594V22.532L5.84984 19.5768L5.84814 19.5757L5.84588 19.5746C5.82775 19.5643 5.81246 19.5496 5.79558 19.5371C5.78086 19.5257 5.76398 19.5167 5.75118 19.5041L5.75004 19.5025C5.73486 19.4883 5.72433 19.4707 5.71153 19.4548C5.69975 19.4394 5.68581 19.4264 5.67641 19.4106L5.67584 19.4088C5.66531 19.3919 5.65885 19.3714 5.65126 19.3522C5.64367 19.3351 5.63382 19.3192 5.62906 19.3011C5.62328 19.2795 5.62215 19.2562 5.61977 19.2341C5.6175 19.2171 5.61275 19.2001 5.61275 19.183V6.99524L2.89977 5.47691L0.93559 4.37916ZM6.08105 0.978595L1.40457 3.59347L6.07992 6.20824L10.7557 3.59281L6.07992 0.978595H6.08105ZM8.51297 17.2973L11.2258 15.7803V4.37916L9.26188 5.47757L6.54822 6.99513V18.3961L8.51297 17.2973ZM22.9195 4.06433L18.2437 6.6791L22.9195 9.29397L27.5947 6.67855L22.9195 4.06433ZM22.4517 10.0809L19.7382 8.5632L17.7742 7.46489V12.6412L20.487 14.1583L22.4518 15.2571L22.4517 10.0809ZM11.6926 21.7458L18.5509 17.9423L21.9793 16.0417L17.3069 13.4286L11.9273 16.4371L7.02423 19.1791L11.6926 21.7458Z" fill="#FF2D20"/>
</svg>
