<svg width="30" height="50" viewBox="0 0 30 50" fill="none" xmlns="http://www.w3.org/2000/svg">
<path d="M24 3.125C24.7956 3.125 25.5587 3.45424 26.1213 4.04029C26.6839 4.62634 27 5.4212 27 6.25V43.75C27 44.5788 26.6839 45.3737 26.1213 45.9597C25.5587 46.5458 24.7956 46.875 24 46.875H6C5.20435 46.875 4.44129 46.5458 3.87868 45.9597C3.31607 45.3737 3 44.5788 3 43.75V6.25C3 5.4212 3.31607 4.62634 3.87868 4.04029C4.44129 3.45424 5.20435 3.125 6 3.125H24ZM6 0C4.4087 0 2.88258 0.65848 1.75736 1.83058C0.632141 3.00269 0 4.5924 0 6.25V43.75C0 45.4076 0.632141 46.9973 1.75736 48.1694C2.88258 49.3415 4.4087 50 6 50H24C25.5913 50 27.1174 49.3415 28.2426 48.1694C29.3679 46.9973 30 45.4076 30 43.75V6.25C30 4.5924 29.3679 3.00269 28.2426 1.83058C27.1174 0.65848 25.5913 0 24 0L6 0Z" fill="#AF48FF"/>
<path d="M15 43.75C15.7956 43.75 16.5587 43.4208 17.1213 42.8347C17.6839 42.2487 18 41.4538 18 40.625C18 39.7962 17.6839 39.0013 17.1213 38.4153C16.5587 37.8292 15.7956 37.5 15 37.5C14.2044 37.5 13.4413 37.8292 12.8787 38.4153C12.3161 39.0013 12 39.7962 12 40.625C12 41.4538 12.3161 42.2487 12.8787 42.8347C13.4413 43.4208 14.2044 43.75 15 43.75Z" fill="#AF48FF"/>
</svg>
