<svg width="29" height="29" viewBox="0 0 29 29" fill="none" xmlns="http://www.w3.org/2000/svg">
<path d="M20.0279 8.81969C20.7499 9.54018 21.9244 9.54018 22.6488 8.81969C23.3708 8.1016 23.3708 6.93532 22.6488 6.21482C22.2999 5.86843 21.8285 5.67407 21.3371 5.67407C20.8458 5.67407 20.3744 5.86843 20.0255 6.21482C19.3035 6.93532 19.3035 8.1016 20.0255 8.81969H20.0279Z" fill="#AF48FF"/>
<path d="M1.41972 12.8437C0.96989 13.29 0.612823 13.8211 0.369143 14.4063C0.125463 14.9916 0 15.6193 0 16.2534C0 16.8875 0.125463 17.5152 0.369143 18.1005C0.612823 18.6857 0.96989 19.2168 1.41972 19.6631L9.38574 27.5885C11.2774 29.4705 14.3434 29.4705 16.2375 27.5885L27.5247 16.3594C28.4224 15.463 28.9326 14.251 28.9422 12.9835L29 4.85562C29.0025 4.21605 28.8784 3.58232 28.6347 2.99112C28.391 2.39992 28.0325 1.86299 27.5802 1.41142C27.1278 0.959842 26.5905 0.602588 25.9993 0.360338C25.4082 0.118087 24.7749 -0.00434862 24.1361 0.000117945L16.2808 0.0338533C15.0037 0.0380947 13.7796 0.545328 12.873 1.44592L1.41972 12.8437ZM3.13326 17.957C2.90834 17.7339 2.72981 17.4684 2.60797 17.1757C2.48613 16.8831 2.4234 16.5692 2.4234 16.2522C2.4234 15.9352 2.48613 15.6213 2.60797 15.3287C2.72981 15.036 2.90834 14.7705 3.13326 14.5473L14.5889 3.14957C15.0416 2.69985 15.6527 2.44628 16.2904 2.44353L24.1457 2.4098C25.4935 2.40498 26.5885 3.49656 26.5765 4.83875L26.5187 12.9666C26.5136 13.6006 26.2584 14.207 25.8087 14.6534L14.5239 25.8825C13.5781 26.8247 12.0451 26.8247 11.0993 25.8825L3.13326 17.9546V17.957Z" fill="#AF48FF"/>
</svg>
