<svg width="29" height="29" viewBox="0 0 29 29" fill="none" xmlns="http://www.w3.org/2000/svg">
<path d="M14.5 0C6.49189 0 0 6.49189 0 14.5C0 22.5081 6.49189 29 14.5 29C22.5081 29 29 22.5081 29 14.5C29 6.49189 22.5081 0 14.5 0ZM23.386 23.386C21.1826 25.5828 18.2403 26.8805 15.1323 27.0264C12.0243 27.1723 8.97337 26.1559 6.57389 24.1752C4.17442 22.1945 2.59832 19.3914 2.1527 16.312C1.70708 13.2327 2.42386 10.0978 4.16338 7.51811C5.9029 4.93842 8.54055 3.09876 11.5624 2.35759C14.5842 1.61643 17.7737 2.02684 20.5095 3.50888C23.2452 4.99091 25.3312 7.43839 26.361 10.3744C27.3908 13.3105 27.2905 16.5247 26.0799 19.3909C25.4489 20.8844 24.534 22.2412 23.386 23.386Z" fill="#AF48FF"/>
<path d="M7.63177 13.5954L8.99888 14.9624L13.5333 10.4281V21.75H15.4667V10.4281L20.0011 14.9624L21.3682 13.5954L14.5 6.72723L7.63177 13.5954V13.5954Z" fill="#AF48FF"/>
</svg>
