<svg width="29" height="29" viewBox="0 0 29 29" fill="none" xmlns="http://www.w3.org/2000/svg">
<path d="M0 14.5V29H14.5H29V14.5V0H14.5H0V14.5Z" fill="#007ACC"/>
<path d="M6.41283 14.5963L6.40363 15.7839H8.29093L10.1782 15.7839V21.1466V26.5093H11.5131H12.8481V21.1466L12.8481 15.7839H14.7354H16.6227V14.6193C16.6227 13.9748 16.6089 13.4363 16.5905 13.4225C16.5766 13.404 14.2797 13.3948 11.4947 13.3994L6.42664 13.4132L6.41283 14.5963Z" fill="white"/>
<path d="M23.4003 13.3794C24.1368 13.5635 24.6984 13.8904 25.2139 14.4243C25.4809 14.7097 25.8768 15.2299 25.909 15.3542C25.9182 15.391 24.6569 16.238 23.8928 16.7121C23.8652 16.7305 23.7547 16.6108 23.6304 16.4267C23.2576 15.8835 22.8663 15.6488 22.2679 15.6074C21.3887 15.5475 20.8225 16.0078 20.8271 16.7766C20.8271 17.0021 20.8593 17.1356 20.9514 17.3197C21.1447 17.7202 21.5038 17.9596 22.6315 18.4475C24.7076 19.3405 25.596 19.9297 26.1484 20.7675C26.7652 21.702 26.9033 23.1934 26.4844 24.3027C26.0241 25.5088 24.8825 26.3281 23.276 26.5997C22.7788 26.6872 21.6004 26.6734 21.0665 26.5767C19.9018 26.3696 18.7971 25.7942 18.1158 25.0393C17.8488 24.7447 17.3287 23.9759 17.3609 23.9207C17.3747 23.9023 17.4944 23.8286 17.6279 23.7504C17.7568 23.6767 18.2447 23.3959 18.705 23.1289L19.5382 22.6456L19.7131 22.9034C19.9571 23.2762 20.4911 23.7872 20.8133 23.9575C21.7385 24.4454 23.009 24.3764 23.635 23.8148C23.902 23.5708 24.0125 23.3177 24.0125 22.9448C24.0125 22.6088 23.9711 22.4615 23.7961 22.2083C23.5706 21.8861 23.1103 21.6145 21.803 21.0483C20.3069 20.4039 19.6625 20.0034 19.0733 19.3681C18.7326 18.9999 18.4104 18.4107 18.2769 17.9181C18.1665 17.5085 18.1388 16.482 18.2263 16.0677C18.5347 14.6223 19.6257 13.6142 21.1999 13.315C21.7109 13.2183 22.8985 13.2551 23.4003 13.3794Z" fill="white"/>
</svg>
